# xmcd
#
# Track frame offsets: 
#        150
#        16337
#        36937
#
# Disc length: 705 seconds
#
# Revision: 1
# Processed by: cddbd v1.5.2PL0 Copyright (c) Steve Scherf et al.
# Submitted via: ExactAudioCopy v1.0b3
#
DISCID=1b02bf03
DTITLE=Al Bano, Romina Power - Domani, Domani
DYEAR=1993
DGENRE=Duet
TTITLE0=Domani, Domani
TTITLE1=In Controluce
TTITLE2=Domani, Domani (Instrumental)
EXTD=YEAR: 1994
EXTT0=
EXTT1=
EXTT2=
PLAYORDER=
